# xmcd
#
# Track frame offsets: 
#        150
#        19572
#        33865
#        49477
#        60440
#        78067
#        92145
#        107745
#        132227
#        149117
#        169610
#        187387
#
# Disc length: 2862 seconds
#
# Revision: 3
# Processed by: cddbd v1.5.2PL0 Copyright (c) Steve Scherf et al.
# Submitted via: ExactAudioCopy v0.99pb3
#
DISCID=a20b2c0c
DTITLE=Daryl Hall and John Oates - Greatest Hits
DYEAR=1983
DGENRE=Pop
TTITLE0=Say It Isn't So
TTITLE1=Sara Smile
TTITLE2=She's Gone
TTITLE3=Rich Girl
TTITLE4=Kiss on My List
TTITLE5=You Make My Dreams
TTITLE6=Private Eyes
TTITLE7=Adult Education
TTITLE8=I Can't Go for That
TTITLE9=ManEater
TTITLE10=One on One
TTITLE11=Wait for Me
EXTD=
EXTT0=
EXTT1=
EXTT2=
EXTT3=
EXTT4=
EXTT5=
EXTT6=
EXTT7=
EXTT8=
EXTT9=
EXTT10=
EXTT11=
PLAYORDER=
